# AST/ASF file generated using VICON BodyLanguage
# -----------------------------------------------
:version 1.10
:name VICON
:units
  mass 1.0
  length 0.45
  angle deg
:documentation
   .ast/.asf automatically generated from VICON data using
   VICON BodyBuilder and BodyLanguage model FoxedUp or BRILLIANT.MOD
:root
   order TX TY TZ RX RY RZ
   axis XYZ
   position 0 0 0  
   orientation 0 0 0 
:bonedata
  begin
     id 1 
     name lhipjoint
     direction 0.661853 -0.702389 0.261917 
     length 2.64193 
     axis 0 0 0  XYZ
  end
  begin
     id 2 
     name lfemur
     direction 0.34202 -0.939693 0  
     length 7.01722  
     axis 0 0 20  XYZ
    dof rx ry rz
    limits (-160.0 20.0)
           (-70.0 70.0)
           (-60.0 70.0)
  end
  begin
     id 3 
     name ltibia
     direction 0.34202 -0.939693 0   
     length 8.25008   
     axis 0 0 20   XYZ
    dof rx
    limits (-10.0 170.0)
  end
  begin
     id 4 
     name lfoot
     direction 0.0709916 -0.195048 0.978221   
     length 2.31941   
     axis -90 7.62852e-016 20   XYZ
    dof rx rz
    limits (-45.0 90.0)
           (-70.0 20.0)
  end
  begin
     id 5 
     name ltoes
     direction 1.53586e-011 -4.22017e-011 1   
     length 1.16486   
     axis -90 7.62852e-016 20   XYZ
    dof rx
    limits (-90.0 20.0)
  end
  begin
     id 6 
     name rhipjoint
     direction -0.638185 -0.721362 0.268992   
     length 2.57244  
     axis 0 0 0  XYZ 
  end
  begin
     id 7 
     name rfemur
     direction -0.34202 -0.939693 0   
     length 7.07017   
     axis 0 0 -20   XYZ
    dof rx ry rz
    limits (-160.0 20.0)
           (-70.0 70.0)
           (-70.0 60.0)
  end
  begin
     id 8 
     name rtibia
     direction -0.34202 -0.939693 0   
     length 8.20386   
     axis 0 0 -20   XYZ
    dof rx
    limits (-10.0 170.0)
 end
 begin
     id 9 
     name rfoot
     direction -0.0822429 -0.225961 0.970658   
     length 2.32215  
     axis -90 -7.62852e-016 -20   XYZ
    dof rx rz
    limits (-45.0 90.0)
           (-20.0 70.0)
  end
  begin
     id 10 
     name rtoes
     direction -1.53597e-011 -4.21689e-011 1   
     length 1.16333   
     axis -90 -7.62852e-016 -20   XYZ
    dof rx
    limits (-90.0 20.0)
  end
  begin
     id 11 
     name lowerback
     direction -0.0131557 0.998589 -0.0514484   
     length 2.14993   
     axis 0 0 0   XYZ
    dof rx ry rz
    limits (-20.0 45.0)
           (-30.0 30.0)
           (-30.0 30.0)
  end
  begin
     id 12 
     name upperback
     direction -0.000776481 0.999993 0.00352685   
     length 2.15301   
     axis 0 0 0   XYZ
    dof rx ry rz
    limits (-20.0 45.0)
           (-30.0 30.0)
           (-30.0 30.0)
  end
  begin
     id 13 
     name thorax
     direction 0.00438186 0.999609 0.0276143   
     length 2.15424   
     axis 0 0 0   XYZ
    dof rx ry rz
    limits (-20.0 45.0)
           (-30.0 30.0)
           (-30.0 30.0)
  end
  begin
     id 14 
     name lowerneck
     direction -0.0488006 0.998094 0.0377807   
     length 1.90481   
     axis 0 0 0   XYZ
    dof rx ry rz
    limits (-20.0 45.0)
           (-30.0 30.0)
           (-30.0 30.0)
  end
  begin
     id 15 
     name upperneck
     direction 0.0443769 0.990702 -0.12861   
     length 1.91305   
     axis 0 0 0   XYZ
    dof rx ry rz
    limits (-20.0 45.0)
           (-30.0 30.0)
           (-30.0 30.0)
  end
  begin
     id 16
     name head
     direction 0.0165599 0.998647 -0.0492982  
     length 1.92369  
     axis 0 0 0   XYZ
    dof rx ry rz
    limits (-20.0 45.0)
           (-30.0 30.0)
           (-30.0 30.0)
  end
  begin
     id 17 
     name lclavicle
     direction 0.911936 0.410197 -0.0105506  
     length 3.52622  
     axis 0 0 0   XYZ
    dof ry rz
    limits (-20.0 10.0)
           (0.0 20.0)
  end
  begin
     id 18 
     name lhumerus
     direction 1 -4.48974e-011 -2.48591e-028   
     length 5.47651   
     axis 180 -30 -90   XYZ
    dof rx ry rz
    limits (-60.0 90.0)
           (-90.0 90.0)
           (-90.0 90.0)
  end
  begin
     id 19
     name lradius
     direction 1 -4.48938e-011 -4.40099e-027   
     length 3.09058   
     axis 180 -30 -90   XYZ
    dof rx
    limits (-10.0 170.0)
  end
  begin
     id 20
     name lwrist
     direction 1 -4.49042e-011 -2.99852e-027   
     length 1.54529   
     axis 1.95339e-015 90 90   XYZ
    dof ry
    limits (-180.0 0.0)
 end
  begin
     id 21 
     name lhand
     direction 1 -4.48815e-011 -5.98193e-027   
     length 0.771611   
     axis 3.82337e-015 90 90   XYZ
    dof rx rz
    limits (-90.0 90.0)
           (-45.0 45.0)
  end
  begin
     id 22 
     name lfingers
     direction 1 -4.49034e-011 -1.1993e-026   
     length 0.622093   
     axis 7.64668e-015 90 90   XYZ
    dof rx
    limits (0.0 90.0)
  end
  begin
     id 23
     name lthumb
     direction 0.707107 -6.34867e-011 0.707107   
     length 0.893204   
     axis -90 45 -1.62303e-014   XYZ
    dof rx rz
    limits (-45.0 45.0)
           (-45.0 45.0)
  end
  begin
     id 24 
     name rclavicle
     direction -0.93442 0.355634 -0.0195692   
     length 3.62463  
     axis 0 0 0   XYZ 
    dof ry rz
    limits (-10.0 20.0)
           (-20.0 0.0)
  end
  begin
     id 25 
     name rhumerus
     direction -1 -4.48957e-011 -1.19147e-027  
     length 5.14182   
     axis 180 30 90   XYZ
    dof rx ry rz
    limits (-90.0 60.0)
           (-90.0 90.0)
           (-90.0 90.0)
  end
  begin
     id 26 
     name rradius
     direction -1 -4.48952e-011 -3.81062e-027   
     length 3.35565   
     axis 180 30 90   XYZ
    dof rx
    limits (-10.0 170.0)
  end
  begin
     id 27 
     name rwrist
     direction -1 -4.48973e-011 -2.99621e-027   
     length 1.67782   
     axis 1.95339e-015 -90 -90   XYZ
    dof ry
    limits (-180.0 0.0)
  end
  begin
     id 28
     name rhand
     direction -1 -4.48895e-011 -5.98727e-027   
     length 0.801042   
     axis 3.82337e-015 -90 -90   XYZ
    dof rx rz
    limits (-90.0 90.0)
           (-45.0 45.0)
  end
  begin
     id 29
     name rfingers
     direction -1 -4.49065e-011 -1.19972e-026   
     length 0.645821   
     axis 7.64668e-015 -90 -90   XYZ
    dof rx
    limits (0.0 90.0)
  end
  begin
     id 30
     name rthumb
     direction -0.707107 -6.34957e-011 0.707107   
     length 0.927273   
     axis -90 -45 1.62303e-014   XYZ
    dof rx rz
    limits (-45.0 45.0)
           (-45.0 45.0)
  end
:hierarchy
  begin
    root lhipjoint rhipjoint lowerback
    lhipjoint lfemur
    lfemur ltibia
    ltibia lfoot
    lfoot ltoes
    rhipjoint rfemur
    rfemur rtibia
    rtibia rfoot
    rfoot rtoes
    lowerback upperback
    upperback thorax
    thorax lowerneck lclavicle rclavicle
    lowerneck upperneck
    upperneck head
    lclavicle lhumerus
    lhumerus lradius
    lradius lwrist
    lwrist lhand lthumb
    lhand lfingers
    rclavicle rhumerus
    rhumerus rradius
    rradius rwrist
    rwrist rhand rthumb
    rhand rfingers
  end

#!OML:ASF E:\Style4\Style4.ASF
:FULLY-SPECIFIED
:DEGREES
143
root 0.0134206 18.1167 0.245395 4.62171 -4.78826 3.11807
lowerback 0.778783 2.38959 -1.1894
upperback -1.83993 3.15281 -0.628174
thorax -2.35154 1.59 -0.068463
lowerneck 2.8926 -3.24561 -6.17124
upperneck 5.67283 -4.55791 3.11812
head 1.52244 -2.35991 2.01863
rclavicle 3.17745e-014 2.38542e-015
rhumerus -83.3393 49.4201 -114.539
rradius 88.9983
rwrist -25.7286
rhand 3.20327 26.3983
rfingers 7.12502
rthumb 28.6548 -1.42427
lclavicle 3.17745e-014 2.38542e-015
lhumerus -87.0794 -54.009 114.794
lradius 97.0918
lwrist 2.47389
lhand -5.23686 5.97307
lfingers 7.12502
lthumb 20.5658 34.9037
rfemur -5.51043 9.30316 15.061
rtibia 18.694
rfoot -16.1784 -15.0279
rtoes -13.6831
lfemur 2.99503 -3.28358 -23.1242
ltibia 5.83209
lfoot -14.199 14.9249
ltoes -15.9621
144
root 0.0137181 18.1153 0.247041 4.60136 -4.79227 3.11472
lowerback 0.793173 2.38163 -1.20546
upperback -1.83148 3.14201 -0.612743
thorax -2.35258 1.58502 -0.0438619
lowerneck 2.86385 -3.2383 -6.22389
upperneck 5.70623 -4.54877 3.14544
head 1.54019 -2.35623 2.0366
rclavicle -8.10669e-015 -2.78299e-015
rhumerus -83.3721 49.4306 -114.542
rradius 88.9994
rwrist -25.6945
rhand 3.22593 26.4335
rfingers 7.12502
rthumb 28.6764 -1.38541
lclavicle -8.10669e-015 -2.78299e-015
lhumerus -87.0455 -53.9772 114.776
lradius 97.0716
lwrist 2.42058
lhand -5.17584 5.96464
lfingers 7.12502
lthumb 20.6245 34.8889
rfemur -5.48173 9.2752 15.0679
rtibia 18.6855
rfoot -16.1343 -15.0187
rtoes -13.8146
lfemur 3.04951 -3.27806 -23.1238
ltibia 5.80541
lfoot -14.1744 14.8862
ltoes -15.8383
145
root 0.0134723 18.1149 0.247969 4.6031 -4.80069 3.09174
lowerback 0.803686 2.37353 -1.20626
upperback -1.83909 3.13129 -0.594606
thorax -2.36728 1.57991 -0.0252709
lowerneck 2.82949 -3.23068 -6.25051
upperneck 5.74808 -4.53804 3.16027
head 1.5604 -2.35144 2.04568
rclavicle 2.05742e-014 -8.74653e-015
rhumerus -83.417 49.4478 -114.585
rradius 88.9987
rwrist -25.6895
rhand 3.16895 26.3965
rfingers 7.12502
rthumb 28.622 -1.43158
lclavicle 2.05742e-014 -8.74653e-015
lhumerus -87.0598 -53.9185 114.775
lradius 97.0601
lwrist 2.34549
lhand -5.10306 5.96229
lfingers 7.12502
lthumb 20.6944 34.879
rfemur -5.47087 9.28968 15.0989
rtibia 18.6651
rfoot -16.0939 -15.0484
rtoes -14.1193
lfemur 3.03714 -3.26801 -23.0958
ltibia 5.83598
lfoot -14.1717 14.8079
ltoes -15.3963
146
root 0.0134216 18.1159 0.249421 4.61355 -4.78683 3.04046
lowerback 0.813033 2.36951 -1.15489
upperback -1.85646 3.12696 -0.580119
thorax -2.38836 1.57706 -0.0398378
lowerneck 2.84636 -3.23218 -6.23474
upperneck 5.74911 -4.53968 3.13335
head 1.55656 -2.3524 2.0342
rclavicle -6.89472e-014 -5.56597e-015
rhumerus -83.4685 49.429 -114.616
rradius 89.0034
rwrist -25.679
rhand 3.18951 26.3855
rfingers 7.12502
rthumb 28.6416 -1.43934
lclavicle -6.89472e-014 -5.56597e-015
lhumerus -87.0251 -53.8841 114.74
lradius 97.0373
lwrist 2.33007
lhand -5.05105 5.98719
lfingers 7.12502
lthumb 20.7444 34.8984
rfemur -5.45809 9.33331 15.1624
rtibia 18.6394
rfoot -16.1201 -15.0858
rtoes -13.9702
lfemur 2.97274 -3.27837 -23.0353
ltibia 5.93944
lfoot -14.184 14.7931
ltoes -15.4508
147
root 0.0140034 18.1164 0.250976 4.63061 -4.79501 3.01135
lowerback 0.816243 2.36835 -1.11405
upperback -1.87716 3.12598 -0.581374
thorax -2.40916 1.57591 -0.0645547
lowerneck 2.86064 -3.23612 -6.22653
upperneck 5.75979 -4.54533 3.12202
head 1.55721 -2.35541 2.0291
rclavicle -6.58039e-014 -2.38542e-015
rhumerus -83.4888 49.422 -114.664
rradius 88.9753
rwrist -25.6491
rhand 3.1844 26.4234
rfingers 7.12502
rthumb 28.6368 -1.40226
lclavicle -6.58039e-014 -2.38542e-015
lhumerus -87.0471 -53.8797 114.761
lradius 97.0251
lwrist 2.38925
lhand -5.13473 5.93345
lfingers 7.12502
lthumb 20.664 34.8534
rfemur -5.46116 9.3076 15.1873
rtibia 18.6167
rfoot -16.1309 -15.0707
rtoes -14.0374
lfemur 2.89649 -3.26874 -23.0103
ltibia 6.0623
lfoot -14.2194 14.8494
ltoes -15.9237
148
root 0.014631 18.1162 0.25252 4.6486 -4.82687 2.97892
lowerback 0.798607 2.37817 -1.07169
upperback -1.88784 3.14017 -0.578641
thorax -2.4082 1.58228 -0.0852325
lowerneck 2.88476 -3.23068 -6.26483
upperneck 5.77097 -4.54244 3.17245
head 1.55921 -2.35445 2.053
rclavicle 8.36759e-015 3.18055e-015
rhumerus -83.4962 49.4032 -114.694
rradius 88.9568
rwrist -25.6446
rhand 3.18089 26.3793
rfingers 7.12502
rthumb 28.6334 -1.44689
lclavicle 8.36759e-015 3.18055e-015
lhumerus -87.0776 -53.8712 114.79
lradius 97.0214
lwrist 2.46
lhand -5.16455 5.98108
lfingers 7.12502
lthumb 20.6353 34.9042
rfemur -5.46407 9.34335 15.2123
rtibia 18.5959
rfoot -16.1584 -15.0374
rtoes -13.8526
lfemur 2.82445 -3.23524 -22.9859
ltibia 6.18229
lfoot -14.3103 14.8915
ltoes -16.1996
149
root 0.0152474 18.1151 0.254075 4.65068 -4.83798 2.97377
lowerback 0.783424 2.39197 -1.03657
upperback -1.87994 3.15917 -0.599713
thorax -2.38856 1.59086 -0.125926
lowerneck 2.84095 -3.23586 -6.25956
upperneck 5.79511 -4.54877 3.21485
head 1.57612 -2.35689 2.06519
rclavicle -1.14674e-014 -5.56597e-015
rhumerus -83.4156 49.3817 -114.653
rradius 88.9515
rwrist -25.7106
rhand 3.24645 26.3672
rfingers 7.12502
rthumb 28.696 -1.44841
lclavicle -1.14674e-014 -5.56597e-015
lhumerus -87.0507 -53.9131 114.758
lradius 96.9932
lwrist 2.42975
lhand -5.18642 6.09505
lfingers 7.12502
lthumb 20.6143 35.0204
rfemur -5.44806 9.34425 15.2138
rtibia 18.5861
rfoot -16.1759 -14.9828
rtoes -13.7895
lfemur 2.79318 -3.22386 -22.9854
ltibia 6.24657
lfoot -14.3375 14.8542
ltoes -16.0246
150
root 0.016026 18.1149 0.256125 4.64804 -4.83351 2.94696
lowerback 0.777651 2.37933 -1.01602
upperback -1.87657 3.14323 -0.579752
thorax -2.38174 1.5827 -0.116103
lowerneck 2.77786 -3.22979 -6.28153
upperneck 5.85885 -4.53776 3.21196
head 1.60774 -2.35208 2.06707
rclavicle 3.65267e-015 1.78906e-014
rhumerus -83.4688 49.4414 -114.684
rradius 88.9727
rwrist -25.7321
rhand 3.28106 26.3788
rfingers 7.12502
rthumb 28.7291 -1.43118
lclavicle 3.65267e-015 1.78906e-014
lhumerus -86.9412 -53.8681 114.663
lradius 96.9581
lwrist 2.42091
lhand -5.09471 6.02818
lfingers 7.12502
lthumb 20.7024 34.944
rfemur -5.42796 9.34591 15.2445
rtibia 18.5829
rfoot -16.1597 -14.9794
rtoes -13.9773
lfemur 2.79596 -3.22587 -22.9602
ltibia 6.26152
lfoot -14.2784 14.8701
ltoes -16.1156
151
root 0.0161427 18.1155 0.258702 4.63596 -4.82401 2.97424
lowerback 0.7668 2.3744 -1.06235
upperback -1.86864 3.13613 -0.571194
thorax -2.37044 1.58005 -0.0806425
lowerneck 2.79945 -3.23126 -6.32492
upperneck 5.82092 -4.54184 3.22629
head 1.59371 -2.35462 2.08007
rclavicle -4.31052e-014 2.38542e-015
rhumerus -83.4677 49.4593 -114.67
rradius 88.9564
rwrist -25.7164
rhand 3.27962 26.4139
rfingers 7.12502
rthumb 28.7277 -1.39638
lclavicle -4.31052e-014 2.38542e-015
lhumerus -86.9032 -53.851 114.644
lradius 96.9546
lwrist 2.43305
lhand -5.06068 5.99949
lfingers 7.12502
lthumb 20.7351 34.9117
rfemur -5.40928 9.33262 15.2199
rtibia 18.5803
rfoot -16.1029 -15.0519
rtoes -14.2414
lfemur 2.82448 -3.23684 -22.9931
ltibia 6.24864
lfoot -14.3224 14.8947
ltoes -16.177
152
root 0.0163922 18.1164 0.261106 4.63461 -4.79754 3.00046
lowerback 0.773105 2.37681 -1.06663
upperback -1.87114 3.13869 -0.593115
thorax -2.37558 1.58121 -0.101116
lowerneck 2.77245 -3.25435 -6.29505
upperneck 5.82636 -4.56949 3.19994
head 1.5999 -2.36796 2.0652
rclavicle 4.20554e-014 -1.43125e-014
rhumerus -83.4182 49.4227 -114.637
rradius 88.9441
rwrist -25.723
rhand 3.26957 26.5073
rfingers 7.12502
rthumb 28.7181 -1.30454
lclavicle 4.20554e-014 -1.43125e-014
lhumerus -86.9201 -53.8835 114.647
lradius 96.9573
lwrist 2.42859
lhand -5.12242 5.96135
lfingers 7.12502
lthumb 20.6758 34.88
rfemur -5.3991 9.32161 15.1975
rtibia 18.5812
rfoot -16.0435 -15.1462
rtoes -14.3308
lfemur 2.86237 -3.26512 -23.0223
ltibia 6.20095
lfoot -14.3309 14.9577
ltoes -16.5088
153
root 0.0165995 18.1151 0.26232 4.63183 -4.79121 3.00329
lowerback 0.783984 2.37452 -1.05956
upperback -1.87597 3.13544 -0.599595
thorax -2.38588 1.57942 -0.112226
lowerneck 2.77366 -3.25127 -6.28848
upperneck 5.80722 -4.56523 3.20155
head 1.59311 -2.3655 2.0647
rclavicle 2.75814e-014 -6.75868e-015
rhumerus -83.4158 49.4138 -114.639
rradius 88.9334
rwrist -25.6968
rhand 3.28744 26.5455
rfingers 7.12502
rthumb 28.7352 -1.26347
lclavicle 2.75814e-014 -6.75868e-015
lhumerus -86.9612 -53.8806 114.675
lradius 96.9617
lwrist 2.41488
lhand -5.19904 5.95729
lfingers 7.12502
lthumb 20.6022 34.884
rfemur -5.39205 9.31897 15.1963
rtibia 18.5845
rfoot -16.0338 -15.2057
rtoes -14.154
lfemur 2.89049 -3.27137 -23.0276
ltibia 6.15904
lfoot -14.2869 14.9996
ltoes -16.8462
